#N canvas 0 47 1920 1033 10;
#X msg 125 95 1;
#X obj 171 123 switch~;
#X msg 230 95 0;
#X obj 110 74 r \$0processing_on;
#X obj 224 73 r \$0processing_off;
#X obj 200 175 loadbang;
#X msg 60 207 \; MUTE bang;
#X msg 152 239 \; set_ticks 1;
#X msg 236 206 \; subscribe ENVIRON;
#X obj 367 159 loadbang;
#X obj 407 193 t b b;
#X obj 425 250 s bang2;
#X obj 445 222 s bang3;
#X connect 0 0 1 0;
#X connect 2 0 1 0;
#X connect 3 0 0 0;
#X connect 4 0 2 0;
#X connect 5 0 6 0;
#X connect 5 0 8 0;
#X connect 5 0 7 0;
#X connect 9 0 10 0;
#X connect 10 0 11 0;
#X connect 10 1 12 0;
