#N canvas 672 83 547 377 10;
#X obj 85 124 print res;
#X obj 76 73 sendOSC;
#X obj 260 -72 unpack s f f f;
#X obj 131 -105 print d;
#X obj 154 -157 OSCroute;
#X obj 153 -206 dumpOSC 57111;
#X msg 136 25 send test;
#X msg 14 -47 connect localhost 7500;
#X connect 1 0 0 0;
#X connect 4 0 2 0;
#X connect 4 0 3 0;
#X connect 5 0 4 0;
#X connect 6 0 1 0;
#X connect 7 0 1 0;
