#N canvas 0 48 1920 1032 10;
#X msg 1015 359 \; GLOBAL_PARAMETERS PROCESS_MODE BATCH;
#X msg 1017 322 \; GLOBAL_PARAMETERS CLOCK_MODE CLOCK_USER;
#X obj 873 449 loadbang;
#X msg 546 342 \; ENVIRONMENT_AGENT_CLASS CLASS ensemble.apps.emitting_sound.ES_Environment
;
#X msg 545 393 \; ENVIRONMENT_AGENT_CLASS WORLD ensemble.apps.emitting_sound.ES_World
;
#X msg 813 587 \; MUSICAL_AGENT CLASS AGENT1 NAME bass;
#X msg 1090 536 \; MUSICAL_AGENT_CLASS CLASS ensemble.apps.emitting_sound.ES_Agent
NAME AGENT2 ARG NAME VELOCITY VALUE 200 ARG NAME MIDI_MIN VALUE 66
ARG NAME MIDI_INTERVAL VALUE 30 ARG NAME MAX_INTERVAL VALUE 70;
#X msg 1089 613 \; MUSICAL_AGENT_CLASS CLASS ensemble.apps.emitting_sound.ES_Agent
NAME AGENT3 ARG NAME VELOCITY VALUE 200 ARG NAME MIDI_MIN VALUE 66
ARG NAME MIDI_INTERVAL VALUE 60 ARG NAME MAX_INTERVAL VALUE 70;
#X msg 790 621 \; MUSICAL_AGENT CLASS AGENT2 NAME mid;
#X msg 767 654 \; MUSICAL_AGENT CLASS AGENT3 NAME high;
#X msg 1092 460 \; MUSICAL_AGENT_CLASS CLASS ensemble.apps.emitting_sound.ES_Agent
NAME AGENT1 ARG NAME VELOCITY VALUE 200 ARG NAME MIDI_MIN VALUE 36
ARG NAME MIDI_INTERVAL VALUE 20 ARG NAME MAX_INTERVAL VALUE 70;
#X connect 2 0 0 0;
#X connect 2 0 1 0;
#X connect 2 0 3 0;
#X connect 2 0 4 0;
#X connect 2 0 10 0;
#X connect 2 0 5 0;
#X connect 2 0 6 0;
#X connect 2 0 7 0;
#X connect 2 0 8 0;
#X connect 2 0 9 0;
