#N canvas 0 48 1920 1032 10;
#X obj 262 165 dac~;
#X msg 62 50 1;
#X obj 108 78 switch~;
#X msg 167 50 0;
#X obj 47 29 r \$0processing_on;
#X obj 161 28 r \$0processing_off;
#X obj 332 123 loadbang;
#X obj 336 167 s set_seconds;
#X obj 101 123 s MUTE;
#X obj 266 135 osc~ 200;
#X obj 338 146 f 1;
#X connect 1 0 2 0;
#X connect 3 0 2 0;
#X connect 4 0 1 0;
#X connect 5 0 3 0;
#X connect 6 0 10 0;
#X connect 9 0 0 0;
#X connect 9 0 0 1;
#X connect 10 0 7 0;
