#N canvas 0 48 1920 1032 10;
#X obj 289 216 dac~;
#X msg 62 50 1;
#X obj 108 78 switch~;
#X msg 167 50 0;
#X obj 47 29 r \$0processing_on;
#X obj 161 28 r \$0processing_off;
#X obj 122 193 s MUTE;
#X obj 266 135 osc~ 300;
#X obj 348 148 osc~ 4;
#X obj 310 191 *~;
#X obj 112 145 loadbang;
#X connect 1 0 2 0;
#X connect 3 0 2 0;
#X connect 4 0 1 0;
#X connect 5 0 3 0;
#X connect 7 0 9 0;
#X connect 8 0 9 1;
#X connect 9 0 0 0;
#X connect 9 0 0 1;
#X connect 10 0 6 0;
