#N canvas 0 47 1920 1033 10;
#X obj 490 143 loadbang;
#X msg 641 188 \; environment class ensemble.apps.simple_extension.Simple_Environment
;
#X msg 630 244 \; environment world ensemble.apps.simple_extension.Simple_World
;
#X msg 499 416 \; global PROCESS_MODE BATCH;
#X msg 468 459 \; global CLOCK_MODE CLOCK_USER;
#X msg 595 301 \; new_agent_type class ensemble.apps.simple_extension.Simple_Agent
name simple_agent;
#X msg 570 375 \; add_agent class simple_agent name simple_simpleton_0
;
#X connect 0 0 1 0;
#X connect 0 0 2 0;
#X connect 0 0 5 0;
#X connect 0 0 6 0;
#X connect 0 0 3 0;
#X connect 0 0 4 0;
