#N canvas 1444 134 876 763 10;
#X obj 20 -329 audce_gui_grid 500 500 0.4;
#X obj 24 -405 dumpOSC 57110;
#X obj 39 -357 print osc_rcv;
#X obj 24 -382 OSCroute /pd;
#X obj 625 231 sendOSC;
#X msg 677 202 disconnect;
#X obj 602 -143 MouseState;
#X obj 602 -17 tgl 15 0 empty empty empty 0 -6 0 8 -262144 -1 -1 0
1;
#X floatatom 618 -36 5 0 0 0 - - -;
#X floatatom 634 -62 5 0 0 0 - - -;
#X text 658 -33 x;
#X msg 651 -242 poll;
#X text 678 -61 y;
#X floatatom 650 -86 5 0 0 0 - - -;
#X text 700 -85 delta x;
#X floatatom 667 -115 5 0 0 0 - - -;
#X text 717 -114 delta y;
#X msg 602 -266 bang;
#X msg 651 -223 nopoll;
#X msg 651 -195 zero;
#X msg 649 -170 reset;
#X obj 654 152 loadbang;
#X obj 657 12 pack f f;
#X obj 625 36 spigot;
#X msg 601 62 send /ensemble/movement mouse Ambulance \$1 0;
#X obj 20 214 print osc_pos;
#X obj 607 267 print osc_mouse;
#X msg 654 176 connect localhost 57111;
#X msg 20 186 send /ensemble/MOVEMENT pos \$1 \$2 \$3 \$4;
#X connect 0 0 28 0;
#X connect 1 0 3 0;
#X connect 3 0 2 0;
#X connect 3 0 0 0;
#X connect 5 0 4 0;
#X connect 6 0 7 0;
#X connect 6 1 8 0;
#X connect 6 2 9 0;
#X connect 6 3 13 0;
#X connect 6 4 15 0;
#X connect 7 0 23 1;
#X connect 11 0 6 0;
#X connect 13 0 22 0;
#X connect 15 0 22 1;
#X connect 17 0 6 0;
#X connect 18 0 6 0;
#X connect 19 0 6 0;
#X connect 20 0 6 0;
#X connect 21 0 27 0;
#X connect 22 0 23 0;
#X connect 23 0 24 0;
#X connect 24 0 4 0;
#X connect 24 0 26 0;
#X connect 27 0 4 0;
#X connect 28 0 4 0;
#X connect 28 0 25 0;
