#N canvas 0 47 1920 1033 10;
#X obj 266 192 dac~;
#X msg 56 49 1;
#X obj 108 78 switch~;
#X msg 167 50 0;
#X obj 38 26 r \$0processing_on;
#X obj 161 28 r \$0processing_off;
#X obj 72 156 s MUTE;
#X obj 66 123 loadbang;
#X obj 277 160 osc~ 880;
#X connect 1 0 2 0;
#X connect 3 0 2 0;
#X connect 4 0 1 0;
#X connect 5 0 3 0;
#X connect 8 0 0 0;
