#N canvas 0 47 1920 1033 10;
#X msg 125 95 1;
#X obj 171 123 switch~;
#X msg 230 95 0;
#X obj 110 74 r \$0processing_on;
#X obj 224 73 r \$0processing_off;
#X obj 200 175 loadbang;
#X msg 120 206 \; MUTE bang;
#X obj 421 73 loadbang;
#X obj 389 116 t b b;
#X obj 352 153 s bang2;
#X obj 406 146 s bang3;
#X msg 201 217 \; subscribe array_testing;
#X obj 708 98 table array_testing;
#X msg 506 115 \; array_testing const 3.221;
#X obj 550 256 osc~ 440;
#X obj 566 292 tabwrite~ array_testing;
#X obj 508 257 bang~;
#X msg 512 172 \; array_testing resize 64;
#X connect 0 0 1 0;
#X connect 2 0 1 0;
#X connect 3 0 0 0;
#X connect 4 0 2 0;
#X connect 5 0 6 0;
#X connect 5 0 11 0;
#X connect 7 0 8 0;
#X connect 7 0 17 0;
#X connect 8 0 9 0;
#X connect 8 1 10 0;
#X connect 14 0 15 0;
#X connect 16 0 15 0;
