#N canvas 0 48 1920 1032 10;
#X obj 384 256 dac~;
#X msg 62 50 1;
#X obj 108 78 switch~;
#X msg 167 50 0;
#X obj 47 29 r \$0processing_on;
#X obj 161 28 r \$0processing_off;
#X obj 361 181 osc~ 250;
#X obj 396 225 *~;
#X obj 437 181 osc~ 4;
#X obj 120 137 loadbang;
#X msg 121 168 \; MUTE bang;
#X connect 1 0 2 0;
#X connect 3 0 2 0;
#X connect 4 0 1 0;
#X connect 5 0 3 0;
#X connect 6 0 7 0;
#X connect 7 0 0 0;
#X connect 7 0 0 1;
#X connect 8 0 7 1;
#X connect 9 0 10 0;
