#N canvas 0 47 1920 1033 10;
#X obj 897 413 loadbang;
#X msg 749 247 \; environment class ensemble.apps.emitting_sound.ES_Environment
;
#X msg 495 390 \; environment world ensemble.apps.emitting_sound.ES_World
;
#X msg 1054 302 \; global CLOCK_MODE CLOCK_USER;
#X msg 1052 339 \; global PROCESS_MODE BATCH;
#X msg 819 585 \; add_agent class AGENT1 name bass;
#X msg 790 621 \; add_agent class AGENT2 name mid;
#X msg 767 654 \; add_agent class AGENT3 name high;
#X msg 1142 499 \; new_agent_type class ensemble.apps.emitting_sound.ES_Agent
name AGENT2 arg VELOCITY value 200 arg MIDI_MIN value 66 arg MIDI_INTERVAL
value 30 arg MAX_INTERVAL value 30;
#X msg 1144 568 \; new_agent_type class ensemble.apps.emitting_sound.ES_Agent
name AGENT3 arg VELOCITY value 200 arg MIDI_MIN value 66 arg MIDI_INTERVAL
value 60 arg MAX_INTERVAL value 30;
#X msg 1142 428 \; new_agent_type class ensemble.apps.emitting_sound.ES_Agent
name AGENT1 arg VELOCITY value 200 arg MIDI_MIN value 36 arg MIDI_INTERVAL
value 20 arg MAX_INTERVAL value 15;
#X connect 0 0 4 0;
#X connect 0 0 3 0;
#X connect 0 0 1 0;
#X connect 0 0 2 0;
#X connect 0 0 10 0;
#X connect 0 0 5 0;
#X connect 0 0 8 0;
#X connect 0 0 9 0;
#X connect 0 0 6 0;
#X connect 0 0 7 0;
