#N canvas 0 48 1920 1032 10;
#X obj 409 332 dac~;
#X msg 62 50 1;
#X obj 108 78 switch~;
#X msg 167 50 0;
#X obj 47 29 r \$0processing_on;
#X obj 161 28 r \$0processing_off;
#X obj 101 123 s MUTE;
#X obj 406 228 osc~ 200;
#X obj 459 272 *~;
#X obj 487 224 osc~ 4;
#X connect 1 0 2 0;
#X connect 3 0 2 0;
#X connect 4 0 1 0;
#X connect 5 0 3 0;
#X connect 7 0 8 0;
#X connect 8 0 0 0;
#X connect 8 0 0 1;
#X connect 9 0 8 1;
