#N canvas 0 48 1920 1032 10;
#X obj 404 166 loadbang;
#X msg 405 186 PURE_DATA:LOADED_PATCH;
#X obj 405 208 print;
#X obj 594 211 dac~ 0 1 2;
#X obj 618 179 osc~ 440;
#X connect 0 0 1 0;
#X connect 1 0 2 0;
#X connect 4 0 3 0;
#X connect 4 0 3 1;
#X connect 4 0 3 2;
