#N canvas 0 47 1920 1033 10;
#X obj 37 38 r agent1:start;
#X obj 199 218 act~ agent1 act2;
#X obj 198 160 osc~ 440;
#X msg 37 60 \; agent1 add_actuator act1 type event scope global \;
agent1 add_sensor sense1 type audio \; agent1 add_actuator act2 type
audio \; agent1 add_actuator act3 type audio;
#X obj 36 149 sense~ agent1 sense1;
#X obj 35 214 *~;
#X obj 34 241 act~ agent1 act3;
#X obj 49 192 osc~ 40;
#X connect 0 0 3 0;
#X connect 2 0 1 0;
#X connect 4 0 5 0;
#X connect 5 0 6 0;
#X connect 7 0 5 1;
