#N canvas 0 47 1920 1033 10;
#X obj 37 38 r agent1:start;
#X obj 197 281 act~ agent1 act2;
#X obj 198 160 osc~ 440;
#X obj 360 211 *~;
#X obj 374 189 osc~ 40;
#X msg 364 129 4;
#X obj 370 101 bang~;
#X obj 361 161 read_memory~ agent1 act2;
#X msg 37 60 \; agent1 add_actuator act1 type event scope global \;
agent1 add_sensor sense1 type audio \; agent1 add_actuator act2 type
audio \; agent1 add_actuator act3 type audio;
#X obj 373 286 act~ agent1 act3;
#X connect 0 0 8 0;
#X connect 2 0 1 0;
#X connect 3 0 9 0;
#X connect 4 0 3 1;
#X connect 5 0 7 0;
#X connect 6 0 5 0;
#X connect 7 0 3 0;
