#N canvas 0 47 1920 1033 10;
#X obj 37 38 r agent1:start;
#X obj 356 166 act~ agent1 act2;
#X obj 356 141 osc~ 440;
#X obj 518 119 read_memory~ agent1 act2;
#X obj 518 141 act~ agent1 act3;
#X obj 518 76 bang~;
#X msg 518 98 4;
#X msg 37 60 \; agent1 add_actuator act1 type event scope global \;
agent1 add_sensor sense1 type audio \; agent1 add_actuator act2 type
audio \; agent1 add_actuator act3 type audio;
#X obj 352 203 sense~;
#X connect 0 0 7 0;
#X connect 2 0 1 0;
#X connect 3 0 4 0;
#X connect 5 0 6 0;
#X connect 6 0 3 0;
