#N canvas 0 47 1920 1033 10;
#X obj 562 57 loadbang;
#X obj 37 38 r agent1:start;
#X msg 37 60 \; agent1 add_actuator act1 type event scope global \;
agent1 add_sensor sense1 type event scope global \; agent1 new_fact
global TEST 123;
#X obj 559 200 print;
#X msg 563 150 TEST;
#X obj 565 108 metro 500;
#X obj 561 177 read_fact agent1;
#X connect 0 0 5 0;
#X connect 1 0 2 0;
#X connect 4 0 6 0;
#X connect 5 0 4 0;
#X connect 6 0 3 0;
