#N canvas 0 47 1920 1033 10;
#X obj 340 41 loadbang;
#X msg 426 194 \; environment world ensemble.apps.pd_testing.Pd_World
;
#X msg 488 66 \; global PROCESS_MODE BATCH;
#X msg 471 104 \; global CLOCK_MODE CLOCK_USER;
#X msg 449 143 \; environment class ensemble.apps.pd_testing.Pd_Environment
arg AGENTS value 3;
#N canvas 0 47 1920 1033 simple_agent0 0;
#X msg 47 153 \; agent0_add_sensor Sense0 patch ../pd/tests/sensor0.pd
type audio;
#X msg 34 68 \; simple_agent0 add_actuator type audio;
#X obj 495 175 loadbang;
#X msg 481 208 \; MUTE bang;
#X obj 614 197 dac~;
#X msg 446 82 1;
#X obj 492 110 switch~;
#X msg 551 82 0;
#X obj 446 30 r simple_agent0-processing_on;
#X obj 556 56 r simple_agent0-processing_off;
#X obj 616 158 osc~ 250;
#X obj 35 45 r simple_agent0-start;
#X connect 5 0 6 0;
#X connect 7 0 6 0;
#X connect 8 0 5 0;
#X connect 9 0 7 0;
#X connect 10 0 4 0;
#X connect 10 0 4 1;
#X connect 11 0 1 0;
#X restore 880 78 pd simple_agent0;
#X msg 397 243 \; add_agent name simple_agent0;
#N canvas 0 47 1920 1033 simple_agent1 0;
#X msg 117 175 \; agent1_add_sensor Sense1 patch ../pd/tests/sensor1.pd
type audio;
#X msg 128 101 \; simple_agent1 add_actuator type audio;
#X obj 554 140 loadbang;
#X msg 521 182 \; MUTE bang;
#X obj 687 195 dac~;
#X obj 689 156 osc~ 300;
#X msg 530 76 1;
#X obj 576 104 switch~;
#X msg 635 76 0;
#X obj 507 31 r simple_agent1-processing_on;
#X obj 629 54 r simple_agent1-processing_off;
#X obj 112 58 r simple_agent1-start;
#X connect 5 0 4 0;
#X connect 5 0 4 1;
#X connect 6 0 7 0;
#X connect 8 0 7 0;
#X connect 9 0 6 0;
#X connect 10 0 8 0;
#X connect 11 0 1 0;
#X restore 870 101 pd simple_agent1;
#N canvas 0 47 1920 1033 simple_agent2 0;
#X msg 9 103 \; agent1_add_sensor Sense1 patch ../pd/tests/sensor1.pd
type audio;
#X msg 49 49 \; simple_agent2 add_actuator type audio;
#X obj 465 131 loadbang;
#X msg 432 173 \; MUTE bang;
#X obj 598 186 dac~;
#X msg 441 67 1;
#X obj 487 95 switch~;
#X msg 546 67 0;
#X obj 436 13 r simple_agent2-processing_on;
#X obj 540 45 r simple_agent2-processing_off;
#X obj 600 147 osc~ 200;
#X obj 44 21 r simple_agent2-start;
#X connect 5 0 6 0;
#X connect 7 0 6 0;
#X connect 8 0 5 0;
#X connect 9 0 7 0;
#X connect 10 0 4 0;
#X connect 10 0 4 1;
#X connect 11 0 1 0;
#X restore 863 124 pd simple_agent2;
#X msg 373 282 \; add_agent name simple_agent1;
#X msg 350 321 \; add_agent name simple_agent2;
#X connect 0 0 4 0;
#X connect 0 0 1 0;
#X connect 0 0 2 0;
#X connect 0 0 3 0;
#X connect 0 0 6 0;
#X connect 0 0 9 0;
#X connect 0 0 10 0;
