#N canvas 0 47 1920 1033 10;
#X obj 145 37 loadbang;
#X msg 328 201 \; environment world ensemble.apps.pd_testing.Pd_World
;
#X msg 416 62 \; global PROCESS_MODE BATCH;
#X msg 406 96 \; global CLOCK_MODE CLOCK_USER;
#X msg 328 148 \; environment class ensemble.apps.pd_testing.Pd_Environment
arg AGENTS value 3;
#N canvas 0 47 1920 1033 simple_agent0 1;
#X msg 271 171 \; simple_agent0 add_sensor sense1 type event scope
global;
#X obj 695 215 s simple_agent0:act1;
#X obj 215 76 r simple_agent0:start;
#X msg 284 112 \; simple_agent0 add_actuator act1 type event scope
simple_agent1:eleanor;
#X obj 697 123 r simple_agent0:sense1;
#X connect 2 0 3 0;
#X connect 2 0 0 0;
#X restore 798 81 pd simple_agent0;
#X msg 202 239 \; add_agent name simple_agent0;
#N canvas 0 47 1920 1033 simple_agent1 1;
#X obj 112 58 r simple_agent1:start;
#X obj 589 25 loadbang;
#X obj 584 46 metro 500;
#X msg 158 96 \; simple_agent1 add_actuator act1 type event scope simple_agent0:sense1
;
#X msg 76 221 \; simple_agent1 new_fact global pi 3;
#X msg 577 67 access_kb pi;
#X msg 135 151 \; simple_agent1 add_sensor sense1 type event scope
simple_agent0:act1;
#X obj 845 64 r simple_agent1:sense1;
#X obj 861 231 s simple_agent1:act1;
#X msg 878 212 asiisd peoorx;
#X obj 891 192 metro 1000;
#X obj 897 170 loadbang;
#X obj 569 456 print;
#X obj 569 87 s simple_agent1:actself;
#X obj 570 435 r simple_agent1:senseself;
#X connect 0 0 3 0;
#X connect 0 0 6 0;
#X connect 0 0 4 0;
#X connect 1 0 2 0;
#X connect 2 0 5 0;
#X connect 5 0 13 0;
#X connect 9 0 8 0;
#X connect 10 0 9 0;
#X connect 11 0 10 0;
#X connect 14 0 12 0;
#X restore 827 113 pd simple_agent1;
#N canvas 0 47 1920 1033 simple_agent2 1;
#X obj 104 145 r simple_agent2:start;
#X msg 167 176 \; simple_agent2 add_actuator act1 type event scope
global;
#X msg 150 214 \; simple_agent2 add_sensor sense1 type event scope
global;
#X connect 0 0 1 0;
#X connect 0 0 2 0;
#X restore 849 143 pd simple_agent2;
#X msg 178 278 \; add_agent name simple_agent1;
#X msg 155 317 \; add_agent name simple_agent2;
#X connect 0 0 4 0;
#X connect 0 0 1 0;
#X connect 0 0 2 0;
#X connect 0 0 3 0;
#X connect 0 0 6 0;
#X connect 0 0 9 0;
#X connect 0 0 10 0;
