#N canvas 0 47 1920 1033 10;
#X obj 145 37 loadbang;
#X msg 254 161 \; environment world ensemble.apps.pd_testing.Pd_World
;
#X msg 316 33 \; global PROCESS_MODE BATCH;
#X msg 299 71 \; global CLOCK_MODE CLOCK_USER;
#X msg 277 110 \; environment class ensemble.apps.pd_testing.Pd_Environment
arg AGENTS value 3;
#N canvas 0 47 1920 1033 simple_agent0 1;
#X msg 47 153 \; agent0_add_sensor Sense0 patch ../pd/tests/sensor0.pd
type audio;
#X msg 54 69 \; simple_agent0 add_actuator type audio;
#X obj 495 175 loadbang;
#X msg 481 208 \; MUTE bang;
#X obj 40 35 r simple_agent0-start;
#X obj 654 285 outlet~;
#X obj 649 239 osc~;
#X obj 664 175 *~ 140;
#X obj 656 201 +~ 440;
#X obj 648 133 osc~ 2;
#X connect 4 0 1 0;
#X connect 6 0 5 0;
#X connect 7 0 8 0;
#X connect 8 0 6 0;
#X connect 9 0 7 0;
#X restore 788 200 pd simple_agent0;
#X msg 202 239 \; add_agent name simple_agent0;
#N canvas 0 47 1920 1033 simple_agent1 1;
#X msg 117 175 \; agent1_add_sensor Sense1 patch ../pd/tests/sensor1.pd
type audio;
#X msg 128 101 \; simple_agent1 add_actuator type audio;
#X obj 554 140 loadbang;
#X msg 521 182 \; MUTE bang;
#X obj 112 58 r simple_agent1-start;
#X obj 699 245 outlet~;
#X obj 689 156 osc~ 200;
#X obj 735 181 osc~ 300;
#X obj 706 209 *~;
#X connect 4 0 1 0;
#X connect 6 0 8 0;
#X connect 7 0 8 1;
#X connect 8 0 5 0;
#X restore 856 222 pd simple_agent1;
#N canvas 0 47 1920 1033 simple_agent2 0;
#X msg 9 103 \; agent1_add_sensor Sense1 patch ../pd/tests/sensor1.pd
type audio;
#X msg 49 49 \; simple_agent2 add_actuator type audio;
#X obj 465 131 loadbang;
#X msg 432 173 \; MUTE bang;
#X obj 44 21 r simple_agent2-start;
#X obj 604 175 outlet~;
#X obj 600 147 osc~ 300;
#X connect 4 0 1 0;
#X connect 6 0 5 0;
#X restore 899 250 pd simple_agent2;
#X msg 178 278 \; add_agent name simple_agent1;
#X msg 155 317 \; add_agent name simple_agent2;
#X obj 835 310 dac~;
#X obj 844 290 clip~ -1 1;
#X connect 0 0 4 0;
#X connect 0 0 1 0;
#X connect 0 0 2 0;
#X connect 0 0 3 0;
#X connect 0 0 6 0;
#X connect 0 0 9 0;
#X connect 0 0 10 0;
#X connect 5 0 12 0;
#X connect 7 0 12 0;
#X connect 12 0 11 0;
#X connect 12 0 11 1;
