#N canvas 0 47 1920 1033 10;
#X obj 145 37 loadbang;
#X msg 98 174 \; global PROCESS_MODE BATCH;
#X msg 88 208 \; global CLOCK_MODE CLOCK_USER;
#N canvas 0 47 1920 1033 simple_agent1 1;
#X obj 43 25 r simple_agent1:start;
#X obj 564 16 loadbang;
#X obj 538 93 s simple_agent1:actself;
#X obj 481 244 outlet~;
#X obj 484 222 osc~;
#X msg 86 52 \; simple_agent1 add_actuator act1 type event scope simple_agent2:sense1
;
#X msg 47 185 \; simple_agent1 new_fact global note 440;
#X obj 502 42 metro 3000;
#X obj 582 39 metro 500;
#X msg 480 65 * note 1.5;
#X obj 501 185 s simple_agent1:act1;
#X msg 89 108 \; simple_agent1 add_sensor sense1 type event scope global
;
#X msg 590 64 read simple_agent1:senseself1 note;
#X obj 485 157 r simple_agent1:senseself1;
#X connect 0 0 5 0;
#X connect 0 0 11 0;
#X connect 0 0 6 0;
#X connect 1 0 8 0;
#X connect 1 0 7 0;
#X connect 4 0 3 0;
#X connect 7 0 9 0;
#X connect 8 0 12 0;
#X connect 9 0 2 0;
#X connect 12 0 2 0;
#X connect 13 0 10 0;
#X connect 13 0 4 0;
#X restore 595 269 pd simple_agent1;
#N canvas 0 47 1920 1033 simple_agent2 1;
#X obj 42 29 r simple_agent2:start;
#X msg 74 98 \; simple_agent2 add_sensor sense1 type event scope global
;
#X obj 490 35 r simple_agent2:sense1;
#X obj 479 107 outlet~;
#X obj 488 83 osc~;
#X obj 493 58 * 1.5;
#X msg 83 58 \; simple_agent2 add_actuator act1 type event scope global
;
#X obj 720 134 s simple_agent2:act1;
#X obj 724 59 loadbang;
#X obj 733 83 metro 500;
#X obj 986 127 print;
#X msg 54 151 \; simple_agent2 add_sensor sense2 type event scope global
;
#X obj 980 86 r simple_agent2:sense2;
#X msg 716 106 derply simple_agent2:sense2;
#X connect 0 0 6 0;
#X connect 0 0 1 0;
#X connect 0 0 11 0;
#X connect 2 0 5 0;
#X connect 4 0 3 0;
#X connect 5 0 4 0;
#X connect 8 0 9 0;
#X connect 9 0 13 0;
#X connect 12 0 10 0;
#X connect 13 0 7 0;
#X restore 711 290 pd simple_agent2;
#X msg 311 43 \; add_agent name simple_agent1;
#X msg 289 90 \; add_agent name simple_agent2;
#X obj 698 378 dac~;
#X obj 702 326 *~ 0.5;
#X msg 268 135 \; add_agent name test;
#N canvas 0 47 1920 1033 test 1;
#X obj 37 33 r test:start;
#X msg 49 82 \; test new_fact global nota 660;
#X obj 277 28 loadbang;
#X obj 282 51 metro 300;
#X obj 269 92 s test:actself;
#X obj 288 179 print;
#X msg 293 68 read teste:sense1 nota;
#X obj 287 155 r teste:sense1;
#X connect 0 0 1 0;
#X connect 2 0 3 0;
#X connect 3 0 6 0;
#X connect 6 0 4 0;
#X connect 7 0 5 0;
#X restore 777 208 pd test;
#X msg 61 253 \; environment class ensemble.apps.pd_testing.PdEnvironment
;
#X msg 46 293 \; environment world ensemble.apps.pd_testing.PdWorld
;
#X connect 0 0 11 0;
#X connect 0 0 12 0;
#X connect 0 0 1 0;
#X connect 0 0 2 0;
#X connect 0 0 5 0;
#X connect 0 0 6 0;
#X connect 0 0 9 0;
#X connect 3 0 8 0;
#X connect 4 0 8 0;
#X connect 8 0 7 0;
#X connect 8 0 7 1;
