#N canvas 0 47 1920 1033 10;
#X obj 36 64 inlet~;
#X obj 35 101 sigmund~ pitch env;
#X obj 35 286 osc~;
#X obj 36 317 *~;
#X obj 35 142 mtof;
#X obj 140 142 dbtorms;
#X obj 140 194 line~ 0 1;
#X obj 35 256 +~;
#X obj 294 64 inlet~;
#X obj 293 101 sigmund~ pitch env;
#X obj 293 142 mtof;
#X obj 293 194 osc~;
#X obj 293 224 *~;
#X obj 398 170 line~ 0 1;
#X obj 398 142 dbtorms;
#X obj 397 199 *~ 20;
#X text 292 43 memory of audio input 10s ago;
#X text 326 135 pitch of;
#X text 326 150 past audio;
#X text 326 165 controls;
#X text 327 181 modulation;
#X text 326 197 frequency;
#X text 461 150 past audio;
#X text 461 165 controls;
#X text 462 181 modulation;
#X text 461 135 envelope of;
#X text 461 197 index;
#X text 67 135 pitch of;
#X text 67 197 frequency;
#X text 67 150 input;
#X text 68 181 carrier;
#X text 67 165 defines;
#X text 205 181 to output;
#X text 204 135 envelope;
#X text 204 150 of input;
#X text 204 197 signal;
#X text 204 165 is transferred;
#X obj 36 347 outlet~;
#X text 33 364 to audio actuator;
#X text 34 43 from audio sensor;
#X connect 0 0 1 0;
#X connect 1 0 4 0;
#X connect 1 1 5 0;
#X connect 2 0 3 0;
#X connect 3 0 37 0;
#X connect 4 0 7 0;
#X connect 5 0 6 0;
#X connect 6 0 3 1;
#X connect 7 0 2 0;
#X connect 8 0 9 0;
#X connect 9 0 10 0;
#X connect 9 1 14 0;
#X connect 10 0 11 0;
#X connect 11 0 12 0;
#X connect 12 0 7 1;
#X connect 13 0 15 0;
#X connect 14 0 13 0;
#X connect 15 0 12 1;
