#N canvas 0 47 1920 1033 10;
#X obj 289 129 outlet~;
#X obj 289 85 line~;
#X obj 51 83 list append \$0 \$1 \$2;
#X obj 51 62 loadbang;
#X obj 51 39 table \$0:memory_samples;
#X msg 51 104 \; \$1:memory_samples resize 16384 \; \$1:memory_samples
rename \$2:\$3:\$1;
#X obj 289 42 r \$1:\$2:\$0:play;
#X obj 412 107 s \$1:actself;
#X obj 412 40 inlet;
#X obj 412 62 list prepend \$0 \$1 \$2;
#X obj 289 107 tabread~ \$1:\$2:\$0;
#X msg 412 84 read_memory~ \$2:\$3:\$1 \$4;
#X msg 289 64 0 \, 16382 371;
#X connect 1 0 10 0;
#X connect 2 0 5 0;
#X connect 3 0 2 0;
#X connect 6 0 12 0;
#X connect 8 0 9 0;
#X connect 9 0 11 0;
#X connect 10 0 0 0;
#X connect 11 0 7 0;
#X connect 12 0 1 0;
