#N canvas 0 47 1920 1033 10;
#X msg 69 50 1;
#X obj 115 78 switch~;
#X msg 174 50 0;
#X obj 54 29 r \$0processing_on;
#X obj 168 28 r \$0processing_off;
#X obj 105 107 loadbang;
#X msg 63 157 \; MUTE bang;
#X obj 466 118 loadbang;
#X obj 473 144 metro 1000;
#X obj 455 169 s simple_agent1;
#X obj 624 150 print;
#X obj 620 124 r bang_simple_agent1;
#X msg 146 156 \; subscribe simple_agent1;
#X obj 358 312 dac~;
#X obj 368 244 osc~ 250;
#X obj 362 277 clip~ -1 1;
#X connect 0 0 1 0;
#X connect 2 0 1 0;
#X connect 3 0 0 0;
#X connect 4 0 2 0;
#X connect 5 0 12 0;
#X connect 7 0 8 0;
#X connect 8 0 9 0;
#X connect 11 0 10 0;
#X connect 14 0 15 0;
#X connect 15 0 13 0;
#X connect 15 0 13 1;
