#N canvas 0 47 1920 1033 10;
#X obj 201 153 loadbang;
#X msg 137 205 \; MUTE bang;
#X msg 225 194 \; subscribe simple_agent0;
#X obj 511 318 dac~;
#X obj 518 239 osc~ 200;
#X msg 119 100 1;
#X obj 165 128 switch~;
#X msg 224 100 0;
#X obj 104 79 r \$0processing_on;
#X obj 218 78 r \$0processing_off;
#X connect 0 0 2 0;
#X connect 4 0 3 0;
#X connect 4 0 3 1;
#X connect 5 0 6 0;
#X connect 7 0 6 0;
#X connect 8 0 5 0;
#X connect 9 0 7 0;
