#N canvas 0 47 1920 1033 10;
#X obj 105 107 loadbang;
#X msg 63 157 \; MUTE bang;
#X msg 146 156 \; subscribe simple_agent1;
#X obj 388 360 dac~;
#X obj 384 289 osc~ 250;
#X msg 202 70 1;
#X obj 248 98 switch~;
#X msg 307 70 0;
#X obj 187 49 r \$0processing_on;
#X obj 301 48 r \$0processing_off;
#X connect 0 0 2 0;
#X connect 4 0 3 0;
#X connect 4 0 3 1;
#X connect 5 0 6 0;
#X connect 7 0 6 0;
#X connect 8 0 5 0;
#X connect 9 0 7 0;
