#N canvas 0 47 1920 1033 10;
#X msg 79 60 1;
#X obj 125 88 switch~;
#X msg 184 60 0;
#X obj 64 39 r \$0processing_on;
#X obj 178 38 r \$0processing_off;
#X obj 201 153 loadbang;
#X msg 137 205 \; MUTE bang;
#X obj 428 91 loadbang;
#X obj 428 115 metro 1000;
#X obj 420 139 s simple_agent0;
#X obj 684 139 print;
#X msg 207 194 \; subscribe simple_agent0;
#X obj 685 111 r bang_simple_agent0;
#X obj 518 239 osc~ 880;
#X obj 527 280 dac~;
#X connect 0 0 1 0;
#X connect 2 0 1 0;
#X connect 3 0 0 0;
#X connect 4 0 2 0;
#X connect 5 0 11 0;
#X connect 5 0 6 0;
#X connect 7 0 8 0;
#X connect 8 0 9 0;
#X connect 12 0 10 0;
#X connect 13 0 14 0;
#X connect 13 0 14 1;
