#N canvas 0 47 1920 1033 10;
#X msg 79 60 1;
#X obj 125 88 switch~;
#X msg 184 60 0;
#X obj 64 39 r \$0processing_on;
#X obj 178 38 r \$0processing_off;
#X obj 154 140 loadbang;
#X msg 103 187 \; MUTE bang;
#X obj 607 62 loadbang;
#X obj 575 105 t b b;
#X obj 538 142 s bang2;
#X obj 592 135 s bang3;
#X msg 219 237 \; subscribe \$1array_testing;
#X obj 220 198 f \$0;
#X obj 567 282 dac~;
#X obj 558 244 osc~ 880;
#X connect 0 0 1 0;
#X connect 2 0 1 0;
#X connect 3 0 0 0;
#X connect 4 0 2 0;
#X connect 5 0 12 0;
#X connect 7 0 8 0;
#X connect 8 0 9 0;
#X connect 8 1 10 0;
#X connect 12 0 11 0;
#X connect 14 0 13 0;
