#N canvas 0 47 1920 1033 10;
#X obj 48 236 agent1;
#X obj 45 36 loadbang;
#X msg 49 140 \; global clock_mode clock_user \; global process_mode
batch \; environment class ensemble.apps.pd_testing.PdEnvironment \;
environment world ensemble.apps.pd_testing.PdWorld \; add_agent name
agent1;
#X obj 530 96 metro 500;
#X obj 550 150 print;
#X msg 551 120 oi;
#X msg 184 82 \; pd dsp 1;
#X connect 1 0 2 0;
#X connect 1 0 3 0;
#X connect 1 0 6 0;
#X connect 3 0 5 0;
#X connect 5 0 4 0;
