#N canvas 0 47 1920 1033 10;
#X obj 445 96 outlet~;
#X obj 55 55 table \$0:sense_samples;
#X obj 56 102 list append \$0 \$1 \$2;
#X obj 56 81 loadbang;
#X obj 445 70 tabread4~ \$1:\$2;
#X msg 57 125 \; \$1:sense_samples resize 64 \; \$1:sense_samples rename
\$2:\$3;
#X obj 424 140 print~;
#X connect 2 0 5 0;
#X connect 3 0 2 0;
#X connect 4 0 0 0;
#X connect 4 0 6 0;
