#N canvas 0 47 1920 1033 10;
#X obj 263 137 outlet~;
#X obj 56 46 bng 15 250 50 0 empty empty empty 17 7 0 10 -262144 -1
-1;
#X obj 56 24 loadbang;
#X obj 121 76 symbol \$1;
#X obj 56 101 list;
#X obj 56 76 symbol \$2;
#X obj 54 183 table sense_samples;
#X obj 263 111 tabread~ \$1/\$2;
#X msg 56 123 \; sense_samples resize 64 \; sense_samples rename \$2/\$1
;
#X connect 1 0 3 0;
#X connect 1 0 5 0;
#X connect 2 0 1 0;
#X connect 3 0 4 1;
#X connect 4 0 8 0;
#X connect 5 0 4 0;
#X connect 7 0 0 0;
