#N canvas 0 47 1920 1033 10;
#X obj 831 167 loadbang;
#X msg 888 322 \; environment world ensemble.apps.pd_testing.Pd_World
;
#X msg 950 194 \; global PROCESS_MODE BATCH;
#X msg 933 232 \; global CLOCK_MODE CLOCK_USER;
#X msg 836 353 \; add_agent name simple_agent0 patch ../pd/tests/agent0.pd
;
#X msg 805 394 \; add_agent name simple_agent1 patch ../pd/tests/agent1.pd
;
#X msg 767 431 \; add_agent name simple_agent2 patch ../pd/tests/agent2.pd
;
#X msg 911 271 \; environment class ensemble.apps.pd_testing.Pd_Environment
arg AGENTS value 3;
#X msg 753 467 \; add_agent name simple_agent3 patch ../pd/tests/agent3.pd
;
#X connect 0 0 7 0;
#X connect 0 0 1 0;
#X connect 0 0 2 0;
#X connect 0 0 3 0;
#X connect 0 0 4 0;
#X connect 0 0 5 0;
#X connect 0 0 6 0;
